<svg viewBox="0 0 512 355.965" xmlns="http://www.w3.org/2000/svg">
    <path fill-rule="evenodd" clip-rule="evenodd"
          d="M116.62 355.605c45.497-4.92 118.655-56.186 109.495-53.99 12.052 10.704 27.662 3.573 34.112 3.573 11.385.68 17.153 16.291 22.755 12.733 7.812-.682 8.48-21.393 13.414-19.183 9.175 26.995 31.235 44.134 63.999 50.417 41.243 0 97.276-.681 120.865-.681 22.074 0 19.864-51.099 16.973-97.443-2.878-41.257 5.768-84.543 2.891-120.184-.681-12.052-3.572-24.952-1.362-34.808 7.812-30.553 15.624-33.444 10.703-37.003-4.935-3.572-20.545 5.088-40.409 5.769-23.422.681-40.409-12.733-66.028-19.864-19.182-5.769-43.981 0-61.802-7.131C295.382 19.99 277.547-4.795 236.471.807c-19.183 2.89-24.966 92.355-33.445 134.28-5.769 59.077 17.82 62.635 17.82 82.5-.68 12.05-19.182 7.811-17.82 17.152 7.812 7.799 18.502 16.973 14.943 28.358-4.934.667-7.812 11.356-6.45 13.567-9.174 20.545-39.894 56.2-107.298 63.998-15.61 2.21-87.435-15.61-103.712-26.314-7.479-4.24 69.252 46.345 116.111 41.257Zm344.595-209.649c0-.695-7.13-10.008-7.812-10.008h-3.558c-1.53 0-4.254 1.515-4.254 2.196-3.558 3.559-9.16 5.77-9.16 10.704 0 1.348 2.21 7.117 4.24 9.16 1.362 1.349 5.601 2.197 6.282-.695.682-.667 2.21-3.558 3.573-3.558 2.196 0 6.45-2.197 7.798-2.197 2.224 0 3.573-6.283 2.891-5.602zM429.3 93.33c-.681 0-8.48-9.341-9.341-9.341H416.4c-1.362 0-3.572 1.529-4.24 2.21-3.572 3.558-9.174 5.602-9.174 10.703 0 1.349 3.572 7.117 5.769 9.16 1.362 1.35 4.934 2.197 6.45-.694.695-.667 2.224-4.226 3.572-4.226 1.362 0 6.45-1.362 7.812-1.362 2.03 0 3.392-6.45 2.71-6.45z"
          fill="#1355af"/>
</svg>
