<?xml version="1.0" standalone="no"?>
<!DOCTYPE svg PUBLIC "-//W3C//DTD SVG 20010904//EN"
 "http://www.w3.org/TR/2001/REC-SVG-20010904/DTD/svg10.dtd">
<svg version="1.0" xmlns="http://www.w3.org/2000/svg"
 width="700.000000pt" height="700.000000pt" viewBox="0 0 700.000000 700.000000"
 preserveAspectRatio="xMidYMid meet">
<metadata>
Created by potrace 1.14, written by Peter Selinger 2001-2017
</metadata>
<g transform="translate(0.000000,700.000000) scale(0.100000,-0.100000)"
fill="#000000" stroke="none">
<path d="M3378 5935 c-2 -1 -41 -5 -88 -8 -85 -6 -85 -6 -125 -50 -39 -43 -48
-58 -78 -127 -38 -90 -99 -323 -126 -480 -6 -36 -13 -74 -15 -85 -2 -11 -7
-42 -10 -68 -4 -27 -9 -59 -12 -70 -8 -40 -23 -141 -29 -187 -3 -25 -7 -56
-10 -70 -2 -14 -7 -45 -10 -70 -3 -25 -15 -103 -25 -175 -11 -71 -22 -150 -25
-175 -3 -25 -8 -52 -10 -60 -2 -8 -7 -35 -10 -60 -4 -25 -12 -72 -19 -105 -25
-122 -26 -413 -2 -553 21 -120 54 -213 118 -331 87 -161 98 -186 110 -243 21
-99 -11 -147 -128 -192 -71 -27 -110 -57 -109 -86 0 -8 24 -38 52 -67 83 -84
132 -151 148 -205 24 -81 20 -103 -25 -149 -39 -41 -60 -89 -60 -142 0 -109
-245 -401 -455 -544 -60 -40 -194 -123 -200 -123 -2 0 -41 -17 -87 -39 -120
-56 -325 -125 -428 -145 -14 -3 -50 -10 -80 -16 -30 -6 -66 -13 -80 -15 -14
-2 -53 -7 -87 -13 -106 -15 -253 -3 -443 38 -25 5 -56 12 -70 14 -105 17 -417
100 -610 161 -58 19 -139 48 -180 65 -107 45 -109 45 -70 18 97 -68 417 -232
605 -310 249 -103 447 -162 648 -192 53 -8 201 -9 267 -1 307 36 848 282 1310
596 63 43 127 89 141 103 l26 24 61 -30 c74 -37 156 -45 262 -28 179 29 204
23 315 -81 78 -74 104 -86 146 -69 34 15 65 64 103 167 28 73 50 104 65 87 4
-5 18 -34 31 -64 127 -307 407 -521 795 -609 36 -9 239 -11 725 -7 371 3 754
5 850 5 171 1 177 2 216 27 158 102 198 448 147 1264 -9 142 -9 457 0 610 12
196 17 271 21 325 28 295 28 743 1 920 -3 17 -7 82 -9 145 -4 120 0 145 50
310 27 87 30 96 84 215 17 38 34 81 37 95 10 54 -55 69 -172 39 -79 -20 -240
-54 -300 -64 -138 -21 -360 11 -492 71 -17 8 -34 14 -38 14 -3 0 -25 9 -48 19
-50 22 -220 91 -297 119 -66 25 -190 59 -243 66 -44 7 -187 14 -392 20 -77 3
-176 12 -220 21 -124 26 -390 143 -649 287 -169 94 -342 177 -432 207 -101 33
-130 39 -229 47 -38 3 -78 6 -87 8 -9 2 -18 3 -20 1z m2429 -1215 c34 -36 63
-74 63 -85 0 -34 -28 -64 -68 -70 -69 -12 -97 -26 -117 -58 -15 -23 -29 -33
-52 -35 -26 -3 -36 4 -66 40 -42 53 -57 80 -57 108 0 23 48 75 115 127 78 59
103 56 182 -27z m421 -677 c13 -15 37 -47 53 -70 28 -40 29 -44 16 -75 -11
-25 -24 -36 -55 -45 -23 -7 -49 -13 -58 -13 -9 0 -36 -20 -60 -44 -41 -42 -46
-44 -73 -35 -21 8 -37 25 -56 62 -40 81 -35 102 38 171 97 91 149 104 195 49z"/>
</g>
</svg>
